# xmcd
#
# Track frame offsets: 
#        150
#        18537
#        45066
#        76767
#        99785
#        120638
#        143172
#
# Disc length: 2162 seconds
#
# Revision: 0
# Processed by: cddbd v1.5.2PL0 Copyright (c) Steve Scherf et al.
# Submitted via: ExactAudioCopy v1.3
#
DISCID=43087007
DTITLE=Alvon - The Blues Chose Me
DYEAR=2016
DGENRE=Country Blues
TTITLE0=I Love The Blues
TTITLE1=The Blues Chose Me
TTITLE2=Heaven
TTITLE3=Breakfast In Bed
TTITLE4=Death Letter
TTITLE5=Frustration
TTITLE6=Look At The World
EXTD=
EXTT0=
EXTT1=
EXTT2=
EXTT3=
EXTT4=
EXTT5=
EXTT6=
PLAYORDER=
